<svg xmlns="http://www.w3.org/2000/svg" width="26.699" height="26.369" viewBox="0 0 26.699 26.369">
  <g id="XMLID_144_" transform="translate(-0.465 -5.4)">
    <path id="XMLID_417_" d="M52.162,45.474A.794.794,0,0,0,51.49,45h-.005a.783.783,0,0,0-.666.484L40.6,65.591a1.221,1.221,0,0,0,.047,1.187.774.774,0,0,0,.635.411l20.924.031a.756.756,0,0,0,.63-.411,1.24,1.24,0,0,0,.026-1.208Zm-1.624,5.564a1.041,1.041,0,1,1,2.082,0v7.287a1.041,1.041,0,0,1-2.082,0Zm1.041,13.5a1.5,1.5,0,1,1,1.5-1.5A1.5,1.5,0,0,1,51.579,64.535Z" transform="translate(-37.917 -37.539)" fill="none"/>
    <path id="XMLID_419_" d="M235.041,150.369a1.044,1.044,0,0,0,1.041-1.041v-7.287a1.041,1.041,0,0,0-2.082,0v7.287A1.044,1.044,0,0,0,235.041,150.369Z" transform="translate(-221.38 -128.542)" fill="#fff"/>
    <circle id="XMLID_420_" cx="1.504" cy="1.504" r="1.504" transform="translate(12.157 23.987)" fill="#fff"/>
    <path id="XMLID_423_" d="M26.778,27.095,16.082,6.967A2.823,2.823,0,0,0,13.573,5.4h-.026a2.829,2.829,0,0,0-2.5,1.608L.82,27.116a3.321,3.321,0,0,0,.125,3.217,2.841,2.841,0,0,0,2.41,1.405l20.924.031h.005A2.823,2.823,0,0,0,26.7,30.348,3.335,3.335,0,0,0,26.778,27.095Zm-1.863,2.181a.756.756,0,0,1-.63.411L3.36,29.656a.77.77,0,0,1-.635-.406,1.236,1.236,0,0,1-.047-1.187L12.907,7.945a.783.783,0,0,1,.666-.484h.005a.784.784,0,0,1,.671.474L24.941,28.073A1.244,1.244,0,0,1,24.915,29.276Z" transform="translate(0)" fill="#fff"/>
  </g>
</svg>
